<?xml version="1.0" standalone="no"?>
<!DOCTYPE svg PUBLIC "-//W3C//DTD SVG 20010904//EN"
 "http://www.w3.org/TR/2001/REC-SVG-20010904/DTD/svg10.dtd">
<svg version="1.0" xmlns="http://www.w3.org/2000/svg"
 width="512.000000pt" height="512.000000pt" viewBox="0 0 512.000000 512.000000"
 preserveAspectRatio="xMidYMid meet">
<metadata>
Created by potrace 1.14, written by Peter Selinger 2001-2017
</metadata>
<g transform="translate(0.000000,512.000000) scale(0.100000,-0.100000)"
fill="#000000" stroke="none">
<path d="M2206 4643 c-113 -23 -177 -76 -215 -178 -26 -70 -29 -87 -36 -214
l-6 -106 35 -22 c20 -13 38 -23 41 -23 3 0 24 -11 46 -26 22 -14 55 -33 72
-43 34 -19 427 -248 513 -299 l52 -30 27 96 c15 54 28 105 29 115 1 13 -32 38
-109 85 l-110 67 0 120 0 120 192 0 c122 0 193 4 193 10 1 23 -127 160 -196
211 -128 95 -229 131 -369 131 -49 1 -121 -6 -159 -14z"/>
<path d="M2577 4263 c-2 -5 -3 -46 -2 -92 l1 -84 39 -24 c100 -58 91 -57 108
-15 21 53 30 124 23 177 l-7 45 -79 0 c-43 0 -80 -3 -83 -7z"/>
<path d="M2030 4055 c0 -24 58 -110 101 -149 75 -68 150 -97 245 -97 31 0 58
2 60 4 3 2 -75 51 -173 107 -98 57 -190 112 -205 122 -16 11 -28 17 -28 13z"/>
<path d="M1762 3894 c-61 -16 -143 -66 -188 -115 -71 -76 -207 -306 -260 -437
-45 -112 -74 -217 -101 -357 -36 -193 -15 -296 77 -379 53 -48 103 -69 275
-117 151 -42 201 -56 310 -88 39 -11 107 -30 153 -42 45 -12 82 -27 82 -33 0
-6 -8 -24 -18 -41 -10 -16 -35 -70 -57 -120 -21 -49 -49 -107 -62 -127 -13
-21 -23 -40 -23 -43 0 -9 -32 -77 -117 -255 -79 -165 -89 -209 -64 -282 15
-45 89 -113 132 -122 45 -9 89 -6 127 7 33 12 112 82 112 99 0 5 25 62 56 126
31 64 71 149 89 187 45 96 113 239 173 365 147 309 151 320 132 399 -12 51
-63 110 -113 131 -12 5 -173 50 -357 101 -184 50 -338 93 -342 95 -18 11 77
248 183 456 16 31 29 61 29 66 0 4 -39 21 -87 37 -134 46 -180 85 -190 163
-12 90 25 159 102 193 52 22 101 17 195 -19 41 -17 78 -28 82 -26 15 9 -29 98
-64 130 -40 36 -120 64 -177 63 -20 0 -60 -7 -89 -15z"/>
<path d="M1822 3710 c-65 -40 -86 -117 -47 -176 22 -35 47 -48 175 -94 63 -23
129 -48 145 -55 17 -7 48 -19 70 -25 22 -7 46 -18 54 -24 8 -6 16 -9 18 -7 2
1 16 -2 31 -8 15 -5 90 -33 167 -61 77 -29 183 -67 235 -87 52 -19 138 -51
190 -69 52 -19 104 -38 115 -43 52 -24 169 -61 189 -61 101 0 165 117 107 198
-25 35 -39 42 -256 121 -93 35 -186 69 -205 76 -19 8 -132 50 -250 93 -118 44
-314 116 -435 161 -121 44 -231 81 -245 81 -14 0 -40 -9 -58 -20z"/>
<path d="M3395 3243 c-52 -11 -76 -26 -69 -42 4 -9 10 -42 12 -74 2 -31 8 -55
13 -51 34 20 49 12 75 -44 15 -31 42 -89 60 -129 19 -39 34 -75 34 -80 0 -10
-930 -10 -947 0 -6 4 -14 3 -18 -3 -4 -6 -10 -8 -14 -6 -7 5 -56 -94 -49 -98
2 -2 19 -12 38 -24 115 -69 161 -204 112 -327 -11 -28 -52 -115 -90 -195 -82
-170 -153 -321 -192 -405 -181 -392 -219 -449 -315 -482 -173 -58 -344 57
-350 236 -3 71 0 79 82 251 31 63 69 144 86 180 16 36 58 125 93 199 35 73 64
137 64 140 0 4 -111 38 -247 75 -137 37 -270 75 -298 84 -43 14 -116 16 -538
17 -425 0 -490 -2 -501 -15 -7 -8 -59 -89 -117 -180 -57 -91 -107 -167 -111
-170 -4 -3 -40 -5 -82 -4 l-75 1 -3 -79 c-2 -43 -1 -85 2 -92 3 -8 30 -12 85
-12 78 1 84 3 145 43 152 98 302 145 470 147 100 1 203 -8 221 -20 5 -3 22 -8
37 -10 60 -11 209 -81 267 -126 91 -70 124 -101 119 -110 -4 -6 -2 -8 4 -4 15
9 121 -136 165 -225 36 -75 71 -190 81 -266 l5 -43 -42 -1 c-23 0 -200 0 -394
-1 -306 0 -352 -2 -355 -15 -2 -9 -2 -41 0 -72 l4 -56 1230 0 1231 0 31 65
c17 36 49 104 70 150 22 47 61 130 86 185 26 55 57 120 68 145 11 25 39 85 61
134 23 49 40 90 38 93 -3 2 -128 4 -279 3 -255 0 -275 1 -275 17 0 10 3 20 8
23 4 3 135 5 292 4 l284 0 11 30 c7 16 10 32 7 34 -2 2 -191 4 -419 4 l-416 0
0 22 c0 21 3 21 165 22 107 0 165 -4 165 -11 0 -7 3 -7 8 0 4 7 97 11 267 11
l260 -1 29 59 30 59 31 -69 c17 -38 40 -87 50 -109 20 -45 75 -161 132 -280
21 -44 38 -82 39 -85 0 -3 16 -39 36 -80 37 -77 72 -153 152 -323 25 -55 46
-103 46 -107 0 -21 23 -18 84 11 66 31 66 31 52 58 -18 32 -126 261 -126 266
0 2 -32 70 -71 152 -39 81 -72 158 -73 170 0 11 -4 19 -7 17 -4 -2 -21 29 -39
69 -19 39 -53 115 -78 167 -24 52 -73 158 -109 234 -35 77 -85 183 -110 235
-25 53 -57 121 -70 151 -14 30 -41 89 -61 130 -19 41 -50 109 -69 150 -100
218 -122 261 -142 277 -16 12 -48 15 -86 6z"/>
<path d="M4033 3005 c-83 -25 -143 -80 -172 -158 -20 -53 -13 -138 15 -196 48
-95 170 -160 244 -131 68 28 102 209 70 367 -24 117 -63 147 -157 118z"/>
<path d="M674 1984 c-111 -15 -116 -16 -190 -47 -144 -58 -264 -158 -355 -295
-84 -127 -122 -259 -121 -422 0 -191 67 -365 193 -502 60 -66 202 -178 226
-178 5 0 27 -9 49 -19 146 -71 385 -77 560 -14 179 65 348 223 431 403 32 68
59 157 51 165 -5 6 -96 8 -210 6 l-77 -1 -32 -66 c-43 -91 -127 -174 -222
-218 -84 -39 -110 -46 -192 -48 -92 -1 -143 10 -224 49 -168 83 -269 245 -269
433 0 85 9 123 51 210 121 254 453 344 691 186 73 -48 133 -116 168 -192 l30
-64 148 0 148 0 -20 68 c-36 121 -102 233 -190 323 -30 31 -66 64 -81 74 -15
9 -24 22 -20 28 3 6 1 7 -6 3 -6 -4 -17 -3 -24 2 -31 25 -129 72 -192 92 -97
29 -213 38 -321 24z"/>
<path d="M4339 1996 c-2 -2 -31 -6 -64 -9 -64 -6 -105 -14 -112 -21 -2 -2 8
-30 23 -63 15 -32 41 -90 59 -128 l33 -71 62 2 c70 2 178 -24 237 -57 60 -34
114 -80 107 -91 -4 -7 -2 -8 4 -4 22 13 111 -133 128 -211 3 -16 8 -62 11
-103 11 -160 -86 -340 -229 -424 -188 -110 -417 -86 -575 61 -190 177 -205
471 -34 664 l41 47 -62 130 c-69 148 -60 144 -144 65 -115 -108 -195 -253
-230 -414 -15 -73 -11 -234 10 -324 26 -117 108 -263 201 -361 35 -36 130
-104 190 -136 108 -56 203 -80 326 -84 280 -7 518 116 673 351 142 214 158
507 41 751 -114 236 -373 412 -624 423 -30 1 -58 4 -61 6 -4 3 -9 3 -11 1z"/>
</g>
</svg>
